# xmcd CD database file
#
# Track frame offsets:
#	150
#	71817
#	121383
#	145602
#	182315
#	257009
#
# Disc length: 4214 seconds
#
# Revision: 0
# Processed by: cddbd v1.5.2PL0 Copyright (c) Steve Scherf et al.
# Submitted via: CDex 1.70beta2
#
DISCID=4e107406
DTITLE=Sonny Simmons Quartet - Judgement day
DYEAR=1996
DGENRE=Jazz
TTITLE0=Judgement day
TTITLE1=Monk mania
TTITLE2=Sponge garden
TTITLE3=Waltz for Josetta
TTITLE4=The call for the old sirius
TTITLE5=Augmentation
EXTD=YEAR: 1996
EXTT0=
EXTT1=
EXTT2=
EXTT3=
EXTT4=
EXTT5=
PLAYORDER=
